<?xml version="1.0" standalone="no"?>
<!DOCTYPE svg PUBLIC "-//W3C//DTD SVG 20010904//EN"
 "http://www.w3.org/TR/2001/REC-SVG-20010904/DTD/svg10.dtd">
<svg version="1.0" xmlns="http://www.w3.org/2000/svg"
 width="20.000000pt" height="20.000000pt" viewBox="0 0 20.000000 20.000000"
 preserveAspectRatio="xMidYMid meet">

<g transform="translate(0.000000,20.000000) scale(0.100000,-0.100000)"
fill="#000000" stroke="none">
<path d="M20 75 l0 -56 63 3 62 3 3 34 c4 42 -17 59 -33 28 -19 -40 -75 -29
-75 14 0 25 16 24 23 -1 6 -25 25 -26 34 -2 4 9 11 20 17 24 6 4 -13 8 -41 8
l-53 0 0 -55z m70 35 c0 -5 -4 -10 -10 -10 -5 0 -10 5 -10 10 0 6 5 10 10 10
6 0 10 -4 10 -10z m-10 -60 c14 0 31 5 38 12 9 9 12 7 12 -10 0 -20 -5 -22
-50 -22 -45 0 -50 2 -50 22 0 17 3 19 12 10 7 -7 24 -12 38 -12z"/>
</g>
</svg>
